<?xml version="1.0" standalone="no"?>
<!DOCTYPE svg PUBLIC "-//W3C//DTD SVG 20010904//EN"
 "http://www.w3.org/TR/2001/REC-SVG-20010904/DTD/svg10.dtd">
<svg version="1.0" xmlns="http://www.w3.org/2000/svg"
 width="240.000000pt" height="39.000000pt" viewBox="0 0 240.000000 39.000000"
 preserveAspectRatio="xMidYMid meet">

<g transform="translate(0.000000,39.000000) scale(0.100000,-0.100000)"
fill="#000000" stroke="none">
<path d="M215 383 c-75 -9 -182 -37 -197 -51 -15 -12 -18 -32 -18 -107 0 -97
7 -115 46 -115 21 0 23 -6 26 -52 4 -71 25 -74 71 -10 l35 49 113 6 c147 9
150 11 157 139 5 114 -1 123 -104 138 -70 10 -76 10 -129 3z m175 -47 c24 -11
25 -16 24 -89 0 -104 -3 -107 -144 -114 l-112 -6 -28 -39 -29 -39 -3 43 c-3
40 -5 43 -35 46 l-33 3 0 77 c0 42 4 82 8 88 7 12 128 41 192 47 52 5 132 -4
160 -17z"/>
<path d="M101 262 c-20 -38 31 -71 59 -37 6 8 9 23 5 35 -8 25 -51 27 -64 2z"/>
<path d="M194 255 c-8 -32 6 -48 37 -43 19 2 24 9 24 33 0 25 -4 31 -27 33
-22 3 -29 -2 -34 -23z"/>
<path d="M291 262 c-14 -27 8 -55 40 -50 19 2 24 9 24 33 0 25 -4 31 -27 33
-18 2 -30 -3 -37 -16z"/>
<path d="M1470 335 l0 -55 -25 16 c-30 20 -92 15 -131 -11 -30 -20 -64 -88
-64 -130 0 -47 35 -112 72 -135 39 -23 96 -26 124 -6 16 13 21 13 36 -1 9 -8
29 -13 45 -11 l28 3 3 193 2 192 -45 0 -45 0 0 -55z m-20 -135 c11 -11 20 -31
20 -45 0 -55 -69 -85 -105 -45 -55 60 27 148 85 90z"/>
<path d="M1827 383 c-4 -3 -7 -26 -7 -50 0 -40 -11 -55 -25 -33 -10 17 -78 11
-113 -10 -97 -60 -97 -210 0 -270 39 -24 90 -26 122 -5 21 14 24 14 30 0 4
-12 16 -15 43 -13 l38 3 3 193 2 192 -43 0 c-24 0 -47 -3 -50 -7z m-18 -189
c12 -15 21 -32 21 -39 0 -7 -9 -24 -21 -39 -26 -33 -71 -35 -93 -4 -51 72 39
150 93 82z"/>
<path d="M1972 198 l3 -193 45 0 45 0 0 190 0 190 -48 3 -47 3 2 -193z"/>
<path d="M572 178 l3 -173 45 0 45 0 3 68 3 67 49 0 49 0 3 -67 3 -68 45 0 45
0 3 173 2 172 -50 0 -50 0 0 -55 0 -55 -50 0 -50 0 0 55 0 55 -50 0 -50 0 2
-172z"/>
<path d="M937 303 c-4 -3 -7 -51 -7 -106 0 -113 15 -159 61 -182 36 -19 89
-19 116 0 18 13 22 13 33 0 15 -18 51 -20 68 -3 8 8 12 55 12 144 0 147 -5
158 -62 152 l-33 -3 -5 -92 c-6 -108 -21 -135 -65 -115 -24 11 -25 15 -25 100
0 55 -4 92 -12 100 -13 13 -70 17 -81 5z"/>
<path d="M2180 288 c-53 -36 -72 -70 -73 -125 -1 -89 54 -152 141 -161 51 -4
96 11 122 43 12 14 10 20 -12 42 -24 24 -26 24 -56 9 -39 -20 -52 -20 -82 2
-25 17 -24 17 75 22 l100 5 3 40 c7 109 -127 184 -218 123z m106 -73 c17 -13
15 -14 -31 -14 -46 0 -48 1 -31 14 11 8 25 15 31 15 6 0 20 -7 31 -15z"/>
</g>
</svg>
