<?xml version="1.0" standalone="no"?>
<!DOCTYPE svg PUBLIC "-//W3C//DTD SVG 20010904//EN"
 "http://www.w3.org/TR/2001/REC-SVG-20010904/DTD/svg10.dtd">
<svg version="1.0" xmlns="http://www.w3.org/2000/svg"
 width="260.000000pt" height="320.000000pt" viewBox="0 0 260.000000 320.000000"
 preserveAspectRatio="xMidYMid meet">

<g transform="translate(0.000000,320.000000) scale(0.100000,-0.100000)"
fill="#000000" stroke="none">
<path d="M142 3033 c-66 -32 -62 43 -62 -1213 l0 -1140 34 -38 34 -37 1134 -3
c1063 -2 1135 -1 1168 15 75 38 70 -45 70 1213 0 1098 -1 1126 -20 1157 -41
67 38 63 -1202 63 -1017 0 -1126 -2 -1156 -17z m1885 -193 l52 -11 -4 -47 c-3
-26 -7 -99 -11 -163 l-6 -116 -101 4 c-92 4 -106 2 -142 -19 -60 -35 -95 -110
-98 -213 l-2 -80 143 -3 142 -3 0 -154 c0 -117 -3 -155 -12 -156 -7 -1 -70 -1
-140 1 l-128 2 -2 -544 -3 -543 -217 -3 -218 -2 0 540 c0 424 -3 540 -12 542
-35 4 -68 6 -115 7 l-53 1 0 155 0 155 90 0 90 0 0 44 c0 113 30 256 72 341
71 143 211 244 381 275 63 11 223 6 294 -10z"/>
</g>
</svg>
