<?xml version="1.0" standalone="no"?>
<!DOCTYPE svg PUBLIC "-//W3C//DTD SVG 20010904//EN"
 "http://www.w3.org/TR/2001/REC-SVG-20010904/DTD/svg10.dtd">
<svg version="1.0" xmlns="http://www.w3.org/2000/svg"
 width="146.000000pt" height="144.000000pt" viewBox="0 0 146.000000 144.000000"
 preserveAspectRatio="xMidYMid meet">

<g transform="translate(0.000000,144.000000) scale(0.100000,-0.100000)"
fill="#000000" stroke="none">
<path d="M317 1349 c-84 -20 -162 -82 -203 -159 -18 -33 -19 -65 -19 -480 0
-437 0 -446 22 -485 30 -55 89 -110 148 -137 50 -23 53 -23 470 -23 l420 0 53
24 c68 31 133 103 155 171 15 45 17 105 17 449 0 473 0 475 -88 561 -32 31
-75 62 -97 69 -31 11 -127 15 -440 17 -221 2 -417 -1 -438 -7z m603 -324 l0
-65 -41 0 c-61 0 -79 -14 -79 -60 l0 -40 61 0 62 0 -7 -52 c-3 -29 -6 -65 -6
-80 0 -27 -1 -28 -60 -28 l-60 0 0 -195 0 -195 -80 0 -80 0 0 195 0 195 -35 0
-35 0 -1 65 c-1 36 -2 71 -3 78 -1 7 14 13 35 15 l36 3 5 63 c10 124 62 165
206 166 l82 0 0 -65z"/>
</g>
</svg>
