<?xml version="1.0" standalone="no"?>
<!DOCTYPE svg PUBLIC "-//W3C//DTD SVG 20010904//EN"
 "http://www.w3.org/TR/2001/REC-SVG-20010904/DTD/svg10.dtd">
<svg version="1.0" xmlns="http://www.w3.org/2000/svg"
 width="360.000000pt" height="360.000000pt" viewBox="0 0 360.000000 360.000000"
 preserveAspectRatio="xMidYMid meet">

<g transform="translate(0.000000,360.000000) scale(0.100000,-0.100000)"
fill="#000000" stroke="none">
<path d="M840 3585 c-434 -79 -748 -395 -825 -830 -21 -118 -21 -1792 0 -1910
78 -439 391 -752 830 -830 118 -21 1792 -21 1910 0 439 78 752 391 830 830 21
118 21 1792 0 1910 -78 439 -391 752 -830 830 -106 19 -1811 19 -1915 0z
m1934 -325 c122 -31 208 -82 306 -180 98 -98 149 -184 180 -306 19 -74 20
-114 20 -974 0 -860 -1 -900 -20 -974 -31 -122 -82 -208 -180 -306 -98 -98
-184 -149 -306 -180 -74 -19 -114 -20 -974 -20 -860 0 -900 1 -974 20 -122 31
-208 82 -306 180 -98 98 -149 184 -180 306 -19 74 -20 114 -20 974 0 860 1
900 20 974 31 122 82 208 180 306 96 97 184 149 302 180 69 18 121 19 974 19
865 1 904 0 978 -19z"/>
<path d="M2663 2969 c-79 -39 -124 -114 -124 -205 0 -172 178 -281 331 -204
140 71 167 264 53 372 -63 60 -180 77 -260 37z"/>
<path d="M1715 2719 c-341 -30 -647 -259 -774 -580 -132 -335 -54 -721 198
-982 349 -362 931 -373 1299 -23 182 173 283 411 283 666 0 544 -461 965
-1006 919z m201 -320 c32 -5 101 -31 153 -55 129 -63 212 -146 275 -275 90
-187 90 -351 0 -538 -63 -129 -146 -212 -275 -275 -99 -47 -175 -66 -269 -66
-94 0 -170 19 -269 66 -129 63 -212 146 -275 275 -90 189 -90 348 1 538 60
125 144 211 266 271 47 23 109 48 139 55 66 17 176 18 254 4z"/>
</g>
</svg>
