<?xml version="1.0" standalone="no"?>
<!DOCTYPE svg PUBLIC "-//W3C//DTD SVG 20010904//EN"
 "http://www.w3.org/TR/2001/REC-SVG-20010904/DTD/svg10.dtd">
<svg version="1.0" xmlns="http://www.w3.org/2000/svg"
 width="300.000000pt" height="300.000000pt" viewBox="0 0 300.000000 300.000000"
 preserveAspectRatio="xMidYMid meet">

<g transform="translate(0.000000,300.000000) scale(0.100000,-0.100000)"
fill="#000000" stroke="none">
<path d="M0 1500 l0 -1500 1500 0 1500 0 0 1500 0 1500 -1500 0 -1500 0 0
-1500z m1990 693 c25 -12 62 -35 84 -52 29 -24 45 -29 65 -24 35 8 133 44 146
53 6 4 18 10 29 14 30 11 11 -40 -40 -107 -24 -31 -44 -60 -44 -63 0 -8 83 6
94 17 6 5 21 9 34 9 l23 0 -19 -27 c-22 -30 -97 -108 -129 -134 -16 -13 -21
-33 -27 -115 -12 -180 -62 -344 -149 -489 -23 -38 -44 -72 -47 -75 -3 -3 -21
-25 -40 -50 -42 -54 -118 -130 -168 -167 -20 -16 -39 -30 -42 -33 -18 -19
-201 -109 -221 -110 -8 0 -19 -4 -25 -9 -5 -5 -53 -19 -106 -30 -174 -37 -398
-26 -563 27 -52 17 -84 31 -192 86 -40 19 -25 26 57 26 72 0 195 24 255 49 46
20 111 53 129 66 23 17 15 45 -13 45 -40 0 -136 53 -184 102 -46 46 -91 124
-81 139 2 4 29 5 59 2 69 -7 73 9 9 38 -55 26 -127 97 -155 152 -25 48 -49
124 -49 155 0 19 4 22 28 16 15 -4 31 -11 37 -15 10 -10 65 -12 65 -3 0 3 -17
26 -39 52 -50 61 -65 93 -80 169 -9 47 -9 78 -1 125 11 59 34 118 46 118 3 0
36 -30 73 -67 76 -76 88 -86 151 -130 138 -93 361 -173 488 -173 l32 0 0 83
c0 71 4 91 30 146 27 56 105 151 124 151 4 0 19 8 33 18 51 33 87 41 183 38
73 -1 105 -6 140 -23z"/>
</g>
</svg>
